<?xml version="1.0" encoding="iso-8859-1"?>
<!-- Uploaded to: SVG Repo, www.svgrepo.com, Generator: SVG Repo Mixer Tools -->
<svg fill="#000000" height="800px" width="800px" version="1.1" id="Layer_1" xmlns="http://www.w3.org/2000/svg" xmlns:xlink="http://www.w3.org/1999/xlink" 
	 viewBox="0 0 512 512" xml:space="preserve">
<g>
	<g>
		<path d="M301.434,68.144h-0.244C298.278,30.085,266.399,0,227.606,0c-40.706,0-73.823,33.117-73.823,73.823v334.824L227.606,512
			l73.823-103.352V102.217h0.005c12.521,0,22.71,10.189,22.71,22.71v130.615h34.072V124.927
			C358.217,93.617,332.745,68.144,301.434,68.144z M227.606,34.072c19.99,0,36.574,14.836,39.339,34.072h-78.676
			C191.032,48.908,207.617,34.072,227.606,34.072z M227.606,453.38l-31.795-44.513h63.59L227.606,453.38z M267.357,374.795h-79.502
			V255.542h79.502V374.795z M267.357,221.469h-79.502V102.217h79.502V221.469z"/>
	</g>
</g>
</svg>